<svg width="40" height="45" viewBox="0 0 40 45" fill="none" xmlns="http://www.w3.org/2000/svg">
<rect y="1" width="40" height="40" rx="8" fill="#19152B"/>
<path d="M6.65696 36L11.1243 9.09091H29.2564L28.468 13.7816H16.0252L14.9741 20.1935H26.484L25.6957 24.8842H14.1857L13.1346 31.3093H25.63L24.8416 36H6.65696ZM32.7284 36.3416C31.8437 36.3416 31.1167 36.035 30.5473 35.4219C29.9867 34.8087 29.7327 34.0642 29.7852 33.1882C29.8466 32.321 30.2101 31.5896 30.8758 30.994C31.5503 30.3896 32.3255 30.0874 33.2014 30.0874C34.0423 30.0874 34.7519 30.3896 35.33 30.994C35.9081 31.5984 36.1621 32.3298 36.0921 33.1882C36.0483 33.7663 35.8599 34.2963 35.5271 34.7781C35.203 35.2511 34.7913 35.6321 34.292 35.9212C33.7927 36.2015 33.2715 36.3416 32.7284 36.3416Z" fill="white"/>
</svg>
